Coordinates
version=1
nRows=4
nColumns=40
inDegrees=yes

Units are S.I. units (second, meters, Newtons, ...)
If the header above contains a line with 'inDegrees', this indicates whether rotational values are in degrees (yes) or radians (no).

endheader
time	pelvis_tilt	pelvis_list	pelvis_rotation	pelvis_tx	pelvis_ty	pelvis_tz	hip_flexion_r	hip_adduction_r	hip_rotation_r	knee_angle_r	knee_angle_r_beta	ankle_angle_r	subtalar_angle_r	mtp_angle_r	hip_flexion_l	hip_adduction_l	hip_rotation_l	knee_angle_l	knee_angle_l_beta	ankle_angle_l	subtalar_angle_l	mtp_angle_l	lumbar_extension	lumbar_bending	lumbar_rotation	arm_flex_r	arm_add_r	arm_rot_r	elbow_flex_r	pro_sup_r	wrist_flex_r	wrist_dev_r	arm_flex_l	arm_add_l	arm_rot_l	elbow_flex_l	pro_sup_l	wrist_flex_l	wrist_dev_l
     16.50000000000000000000	     23.05124722804692183331	    -12.27473375145978096157	    179.23801270047860612067	      0.36902157601526885955	      0.62155621549835848860	     -0.60528787696541941354	     97.87214010710097511492	     -7.38701245072903134314	     13.68621529569691297468	     98.47947105463256889379	      1.71879101552579083290	     26.25911301399407449253	      0.00000000000000000000	      0.00000000000000000000	     89.74476873467882853674	     -5.31119024338154499532	    -11.48406485820251710095	     95.83983475182962763483	      1.67272067098670951246	     29.25240811958076747601	      0.00000000000000000000	      0.00000000000000000000	    -41.44680261804328580411	     -9.94804509319360086295	     -7.84578062736891634898	     53.18270980946662973565	    -13.42582814304764582403	     42.73799369496364874976	     11.01728163405773486261	      7.61483161499356864255	      0.00000000000000000000	      0.00000000000000000000	     60.89435778343202088081	    -18.74551000387367594158	     40.76422093101807320181	     17.73159878042404713483	     87.70971856763432583648	      0.00000000000000000000	      0.00000000000000000000
     16.50499999999999900524	     23.15495726674330967398	    -12.25596134122906022412	    179.12836952366748732857	      0.36831528579017502878	      0.62220967958242745510	     -0.60552006307753314385	     97.82561333507211998040	     -7.24511289795767599031	     13.65299544271154452701	     98.37121256178801331771	      1.71690154838240660595	     26.24573251636918769236	      0.00000000000000000000	      0.00000000000000000000	     89.70607732522215371773	     -5.50264382887080927276	    -11.55149801035068612975	     95.77976898635849067887	      1.67167232561150758130	     29.27632203999236537584	      0.00000000000000000000	      0.00000000000000000000	    -41.46683307221975667289	    -10.00796427886852768552	     -7.74629212402055244979	     53.21056079693898510641	    -13.42399200775550838216	     42.75332771571851253611	     11.00258331433744629635	      7.61311003814449982485	      0.00000000000000000000	      0.00000000000000000000	     60.92205289320855143842	    -18.74012724843412414089	     40.76774958438022622431	     17.74737196325386179296	     87.71322200757245468594	      0.00000000000000000000	      0.00000000000000000000
     16.51000000000000156319	     23.35677922479151291668	    -12.26592926088841295496	    179.15080951708523571142	      0.36782974861997008720	      0.62298618081324197426	     -0.60535177850990529169	     97.87383129000046722012	     -7.29971668351350366777	     13.60741400047805349516	     98.17666997074326218353	      1.71350613963331488421	     26.28307781439660928413	      0.00000000000000000000	      0.00000000000000000000	     89.76290292957365579696	     -5.41968001812654165406	    -11.51604412102486030278	     95.58748139721409131653	      1.66831627407021554355	     29.26855156342767827482	      0.00000000000000000000	      0.00000000000000000000	    -41.43325490481137052257	    -10.00788809268932766372	     -7.74824172921861809016	     53.26598922956082304836	    -13.43705911341963599170	     42.76313819816288486209	     10.97038158144858499554	      7.60770295390537842906	      0.00000000000000000000	      0.00000000000000000000	     60.98445683693083907428	    -18.70973901304150288638	     40.80227688224690751895	     17.74409058791262694399	     87.72139988795524345733	      0.00000000000000000000	      0.00000000000000000000
     16.51500000000000056843	     23.42424771341122990975	    -12.26593525343378843218	    179.02965091501033612076	      0.36708681577981966404	      0.62353177231767631383	     -0.60564469603880910498	     97.82115664463096038617	     -7.14254992782548292496	     13.59674350551299859546	     98.12628177881950364281	      1.71262669978011849992	     26.26268261882112753369	      0.00000000000000000000	      0.00000000000000000000	     89.72205711575062991869	     -5.57940949056468404876	    -11.54499868614569813019	     95.57773947873613451520	      1.66814624551731438551	     29.29114612132341477491	      0.00000000000000000000	      0.00000000000000000000	    -41.46761625200253575940	    -10.10424267002872689147	     -7.64277709113915282302	     53.24788564352433439808	    -13.42835949498491565635	     42.77666290905209223183	     10.94659105832134038394	      7.60427080875772976043	      0.00000000000000000000	      0.00000000000000000000	     61.02874394848369377087	    -18.70456759478250319262	     40.79063454605346095150	     17.76349169593599341965	     87.71999260967133693612	      0.00000000000000000000	      0.00000000000000000000
